HIERARCHY
ROOT hip
{
	OFFSET 0.000000 0.000000 0.000000 
	CHANNELS 6 Xposition Yposition Zposition Xrotation Zrotation Yrotation
	JOINT abdomen
	{
		OFFSET 0.000000 3.402643 0.000000 
		CHANNELS 3 Xrotation Zrotation Yrotation
		JOINT chest
		{
			OFFSET 0.000000 8.438565 -0.680529 
			CHANNELS 3 Xrotation Zrotation Yrotation
			JOINT neck
			{
				OFFSET 0.000000 10.207942 -0.272212 
				CHANNELS 3 Xrotation Zrotation Yrotation
				JOINT head
				{
					OFFSET 0.000000 3.130431 0.000000 
					CHANNELS 3 Xrotation Zrotation Yrotation
					End Site
					{
						OFFSET 0.000000 3.130435 0.000000 
					}
				}
			}
			JOINT lCollar
			{
				OFFSET 3.470700 6.669187 -0.816635 
				CHANNELS 3 Yrotation Zrotation Xrotation
				JOINT lShldr
				{
					OFFSET 3.198488 0.000000 0.000000 
					CHANNELS 3 Zrotation Yrotation Xrotation
					JOINT lForeArm
					{
						OFFSET 10.139888 0.000000 0.000000 
						CHANNELS 3 Yrotation Zrotation Xrotation
						JOINT lHand
						{
							OFFSET 8.370511 0.000000 0.000000 
							CHANNELS 3 Zrotation Yrotation Xrotation
							End Site
							{
								OFFSET 4.083176 0.000000 0.000000 
							}
						}
					}
				}
			}
			JOINT rCollar
			{
				OFFSET -3.470700 6.669187 -0.816635 
				CHANNELS 3 Yrotation Zrotation Xrotation
				JOINT rShldr
				{
					OFFSET -3.198488 0.000000 0.000000 
					CHANNELS 3 Zrotation Yrotation Xrotation
					JOINT rForeArm
					{
						OFFSET -10.139888 0.000000 0.000000 
						CHANNELS 3 Yrotation Zrotation Xrotation
						JOINT rHand
						{
							OFFSET -8.370511 0.000000 0.000000 
							CHANNELS 3 Zrotation Yrotation Xrotation
							End Site
							{
								OFFSET -4.083176 0.000000 0.000000 
							}
						}
					}
				}
			}
		}
	}
	JOINT lThigh
	{
		OFFSET 5.308129 -1.633274 1.361059 
		CHANNELS 3 Xrotation Zrotation Yrotation
		JOINT lShin
		{
			OFFSET -2.041588 -20.007561 0.000000 
			CHANNELS 3 Xrotation Zrotation Yrotation
			JOINT lFoot
			{
				OFFSET 0.000000 -19.190928 -1.224953 
				CHANNELS 3 Xrotation Yrotation Zrotation
				End Site
				{
					OFFSET 0.000000 -2.449906 4.627600 
				}
			}
		}
	}
	JOINT rThigh
	{
		OFFSET -5.308129 -1.633274 1.361059 
		CHANNELS 3 Xrotation Zrotation Yrotation
		JOINT rShin
		{
			OFFSET 2.041588 -20.007561 0.000000 
			CHANNELS 3 Xrotation Zrotation Yrotation
			JOINT rFoot
			{
				OFFSET 0.000000 -19.190928 -1.224953 
				CHANNELS 3 Xrotation Yrotation Zrotation
				End Site
				{
					OFFSET 0.000000 -2.449906 4.627600 
				}
			}
		}
	}
}
MOTION
Frames: 11
Frame Time: 0.033333
23.328020 46.244476 -92.007103 1.308594 -3.447266 115.605476 10.370376 -8.712459 -6.345483 -10.185548 8.710938 4.902344 -7.086997 -11.777210 -26.587234 7.294921 -4.970703 -28.671877 2.000000 -2.000000 0.000000 -84.736328 -30.468746 37.001953 2.716559 -1.171359 2.431119 -22.206598 -24.716963 62.561581 -2.000000 2.000000 0.000000 75.078125 -18.193357 -21.601561 -2.706745 1.132367 2.428571 20.636034 3.769708 64.606178 12.072394 8.502767 10.429779 20.238808 -3.662254 25.155773 -19.287416 3.985622 -23.134075 -29.417198 -8.181167 -6.966926 24.315416 3.426601 -39.764820 0.908730 -0.387004 -3.433570 
24.332378 46.294437 -92.084366 1.357422 -1.425781 114.755867 10.370376 -8.712459 -6.345483 -8.632812 9.462892 4.962543 -6.894791 -11.938587 -27.132057 6.689453 -5.996093 -28.945314 2.000000 -2.000000 0.000000 -85.078125 -28.701172 41.054691 2.697016 -1.161611 2.430531 -23.697088 -23.011564 63.863766 -2.000000 2.000000 0.000000 74.697266 -17.138672 -20.263672 -2.716511 1.132367 2.428571 21.421253 3.430021 64.199707 15.344975 9.802155 11.186788 19.855497 -3.631189 24.691162 -16.932253 3.482765 -23.988913 -27.098146 -6.835716 -7.122530 25.760456 3.377857 -38.418747 -0.725065 -0.058001 -2.440855 
25.088314 46.336849 -92.170311 1.289063 -1.943359 112.695313 10.370376 -8.712459 -6.345483 -9.570313 9.365234 4.814454 -7.036129 -11.730136 -26.603344 6.259766 -6.240234 -28.310551 2.000000 -2.000000 0.000000 -84.765625 -26.445314 43.691406 2.677472 -1.151863 2.429942 -24.998810 -22.832815 66.025131 -2.000000 2.000000 0.000000 73.378906 -15.693358 -17.424517 -2.716511 1.132367 2.428571 21.434866 3.165976 64.190430 15.139669 9.509150 10.932861 20.950338 -3.602915 24.957066 -14.832176 3.012568 -21.799580 -28.043177 -6.180534 -6.794251 27.983408 3.325191 -36.107040 -2.503432 0.156641 -1.769177 
25.900000 46.433872 -92.133438 1.181641 -1.660156 110.663780 10.370376 -8.712459 -6.345483 -9.824219 9.345703 4.775391 -7.081981 -11.696409 -26.497725 6.718750 -6.347655 -28.154297 2.000000 -2.000000 0.000000 -83.720703 -24.316408 46.314339 2.677472 -1.151863 2.429942 -25.787899 -23.193542 66.718765 -2.000000 2.000000 0.000000 72.197266 -13.408202 -15.742188 -2.706745 1.132367 2.428571 21.411572 3.000442 64.453033 15.212612 9.755180 11.930479 22.977667 -3.571607 24.969423 -12.210286 2.699745 -18.696228 -27.592707 -4.891568 -6.242149 28.949604 3.276186 -34.552479 -3.912220 0.189742 -1.507781 
26.671799 46.546631 -92.084618 1.806641 -1.738281 109.326172 10.370376 -8.712459 -6.345483 -10.146485 8.349609 4.882813 -7.120847 -11.687769 -26.359276 7.128906 -6.425781 -28.017580 2.000000 -2.000000 0.000000 -82.744141 -22.841795 49.472660 2.726324 -1.171359 2.431119 -25.811764 -23.642319 64.392998 -2.000000 2.000000 0.000000 72.119141 -11.826173 -15.392625 -2.726277 1.132367 2.428571 19.719002 4.385043 64.262810 16.026447 9.021388 10.874937 22.748583 -3.608426 25.819050 -10.664525 2.795128 -17.617880 -26.983997 -4.734313 -6.146147 29.673986 3.239070 -33.179977 -5.314937 0.148752 -1.370822 
27.526272 46.738541 -91.964821 0.937500 -1.894531 107.001625 10.370376 -8.712459 -6.345483 -11.044921 8.876953 4.649945 -7.302318 -11.362815 -25.628157 7.314453 -6.054688 -27.265629 2.000000 -2.000000 0.000000 -81.269531 -20.957029 51.328129 1.183587 -1.180519 2.441453 -25.110348 -23.885075 57.831497 -2.000000 2.000000 0.000000 71.279297 -9.423827 -13.955077 -2.726277 1.132367 2.428571 19.283316 5.585675 64.239204 16.139633 9.550096 11.557417 23.605877 -3.573899 25.742376 -8.967748 2.971938 -15.736636 -25.767845 -2.694983 -5.569441 28.111124 3.326642 -31.932341 -5.798371 0.067634 -1.876514 
28.402262 47.068756 -91.850670 0.898438 -1.708984 105.155960 10.370376 -8.712459 -6.345483 -11.386720 8.652345 4.658204 -7.391867 -11.247605 -25.285839 7.832031 -6.191406 -26.894533 2.000000 -2.000000 0.000000 -79.960938 -19.833984 51.832623 -0.457050 -1.170771 2.440865 -25.566015 -23.765934 53.537220 -2.000000 2.000000 0.000000 71.289063 -7.617188 -13.427735 -2.726277 1.132367 2.428571 19.270128 8.750670 65.386299 15.668954 9.685845 11.597207 25.763426 -3.485982 25.571781 -6.314678 2.510918 -12.297486 -22.990709 -1.503319 -5.088302 24.906883 3.423524 -30.609568 -5.643419 -0.054342 -2.812215 
29.281656 47.333023 -91.746490 1.025391 -0.771484 103.456902 10.370376 -8.712459 -6.345483 -10.859375 8.476563 4.776830 -7.453009 -11.047710 -24.754570 8.642578 -6.074219 -26.348692 2.000000 -2.000000 0.000000 -78.662109 -19.013672 51.012444 -1.667757 -1.179932 2.451199 -24.647236 -23.759979 48.748684 -2.000000 2.000000 0.000000 70.927734 -6.123047 -11.368228 -2.755597 1.151863 2.429745 19.930475 13.357246 64.449516 14.909060 10.360507 11.858773 29.511192 -3.358767 24.300308 -3.491950 1.563290 -7.605353 -19.732866 -0.546725 -4.820334 22.356256 3.519365 -29.320818 -5.762779 -0.093507 -3.501287 
30.064779 47.590244 -91.629181 0.556641 -0.351563 102.333923 10.370376 -8.712459 -6.345483 -10.908202 8.876953 4.708538 -7.433137 -11.089597 -24.917969 9.453128 -5.966812 -26.563461 2.000000 -2.000000 0.000000 -76.914063 -18.623047 51.035160 -5.358773 -1.139764 2.468335 -22.845816 -22.172134 41.893833 -2.000000 2.000000 0.000000 71.210938 -4.228516 -10.928452 -2.765363 1.151863 2.429746 20.343609 17.187376 64.834663 12.769007 11.511581 11.955566 33.597553 -3.196251 23.613886 -0.408620 0.542894 -6.004193 -16.537500 0.644071 -4.783429 18.523127 3.681840 -28.472017 -5.135016 -0.155071 -4.454681 
30.802090 47.699104 -91.462074 -0.507813 -0.351563 101.953125 10.370376 -8.712459 -6.345483 -11.474610 9.775391 4.443359 -7.373393 -11.224750 -25.406929 10.576172 -6.025390 -27.071337 2.000000 -2.000000 0.000000 -74.804688 -18.662111 51.240234 -8.932830 -1.090437 2.475136 -22.671223 -22.352039 38.603645 -2.000000 2.000000 0.000000 71.777344 -2.880860 -11.260257 -2.794672 1.161611 2.430333 20.670803 22.123089 64.963455 9.521058 13.817995 12.245461 38.260834 -2.999865 20.726118 1.409363 -0.427845 -5.426240 -15.115661 2.245356 -4.287557 16.870909 3.725399 -28.909540 -5.324782 -0.224018 -4.636461 
31.466665 47.724895 -91.381653 -0.595703 -0.585939 100.703049 10.370376 -8.712459 -6.345483 -12.099609 9.726563 4.347353 -7.364085 -11.305215 -25.565157 11.591798 -6.103515 -27.227602 2.000000 -2.000000 0.000000 -72.910156 -18.476563 49.941406 -11.627957 -1.060606 2.483115 -22.385363 -22.104654 36.574329 -2.000000 2.000000 0.000000 71.992188 -1.005859 -10.322436 -0.382515 1.122619 2.427984 20.717030 25.120962 64.641922 5.961359 14.465077 11.328431 42.816166 -2.798101 19.507053 2.306671 -0.767859 -3.424358 -14.716225 2.782375 -4.217778 17.292191 3.710706 -28.070387 -6.400307 -0.212006 -4.575508 
